<svg width="126" height="28" viewBox="0 0 126 28" fill="none" xmlns="http://www.w3.org/2000/svg">
<path fill-rule="evenodd" clip-rule="evenodd" d="M125.686 21.5633C120.43 29.4606 112.107 27.1691 109.607 25.3749C108.543 26.0147 106.677 27.417 104.19 27.255C98.8923 26.9104 96.9951 20.2007 96.9951 20.2007C97.0332 20.2275 95.4171 20.6949 94.5437 20.6866C94.5324 22.6542 92.6133 27.3546 87.434 27.2945C81.622 27.2273 80.4405 19.5531 80.4405 19.5531C80.4405 19.5531 79.8621 20.2649 77.663 20.9739C77.7737 19.4622 77.6928 27.0644 70.7269 27.1761C65.2199 27.2646 63.7334 19.4348 63.7334 19.4348C63.7334 19.4348 62.7781 20.3143 60.9266 20.6194C61.0443 19.0831 60.853 27.2019 53.8863 27.1761C49.1783 27.1588 47.5694 22.353 47.6945 21.686C47.8542 20.8359 46.1034 27.2957 41.5303 27.195C39.6431 27.1459 38.2361 25.9349 37.3533 24.3204C36.1714 25.5189 34.4555 27.195 32.5306 27.195C29.0753 27.195 27.552 24.6337 27.81 17.3179C27.832 16.4502 27.7614 16.109 26.7881 15.9792C26.204 15.8928 25.6058 15.7292 24.9728 15.643C24.7699 16.243 23.0492 26.9998 17.1323 27.204C15.1473 27.2725 14.0619 25.7485 13.1706 24.6174C11.8042 26.2194 10.0005 27.255 7.43096 27.255C3.07838 27.255 0.112823 24.1365 0.112823 20.2895C0.112823 16.4425 3.07838 13.3242 7.43096 13.3242C8.20055 13.3242 8.41658 13.422 9.11964 13.6038C7.67378 1.93646 11.0883 0.113027 14.0753 0.113027C16.943 0.113027 21.8422 6.01204 14.9486 20.9751C16.4791 25.4381 19.7786 25.1857 21.3641 15.9982C21.6868 14.1307 20.8239 11.6105 22.166 11.2588C24.6193 10.616 24.8796 12.5446 26.0299 12.866C27.2462 13.2056 27.9561 13.1724 29.1238 13.3885C31.119 13.7339 31.8976 14.6838 31.6545 16.7996C31.3626 19.4767 30.8519 23.3732 32.409 23.8481C33.5318 24.1931 35.5818 22.1293 35.9416 21.0001C36.3011 19.871 36.3763 19.4845 36.4082 18.6563C36.4569 16.8861 36.5179 15.5886 36.8585 14.2499C37.0043 13.7319 37.1704 13.3888 37.8317 13.3654C38.3758 13.3531 39.3709 13.2079 39.8089 13.51C40.3927 13.8988 40.3198 14.2933 40.2527 15.3316C39.5738 30.1353 44.7997 22.7452 46.3579 16.8279C45.8031 10.1369 46.184 0.235551 50.9149 0.0694879C53.3753 -0.0168743 54.463 1.73006 54.5826 3.03399C54.9211 6.71676 53.0254 12.8172 50.5324 16.9197C49.1076 25.2907 56.7621 26.9459 57.9861 20.2642C55.9835 19.4202 53.8191 16.0044 55.5803 14.3397C56.5686 13.4055 60.6824 14.7476 60.7497 17.6748C62.7676 17.1965 63.037 16.1867 63.065 16.354C62.5103 9.66298 63.0248 0.235638 67.756 0.0695734C70.2161 -0.0167888 71.3036 1.73015 71.4233 3.03407C71.7617 6.71683 69.8661 12.8173 67.3734 16.9199C65.9484 25.2907 73.603 26.946 74.8268 20.2643C73.344 20.0107 70.2141 16.3775 72.02 14.3398C72.9851 13.2509 77.0838 15.5154 77.5427 17.7717C79.4812 17.2855 79.7444 16.3078 79.7722 16.4724C79.2174 9.78156 79.7319 0.354218 84.4631 0.188154C86.9231 0.101792 88.0107 1.84873 88.1303 3.15265C88.4688 6.83541 86.5731 12.936 84.0801 17.0385C82.6555 25.4095 90.3099 27.0644 91.534 20.3827C89.4964 20.082 86.6006 16.2458 88.9313 14.2833C89.8625 13.4992 93.4205 15.5346 94.2534 17.8568C95.4106 17.8173 96.131 17.4636 96.2854 17.4279C94.4379 9.57305 95.8133 0.148361 100.903 0.0696886C103.654 0.0272078 106.343 1.38773 105.162 8.8606C104.036 15.9906 99.9854 18.9827 99.9949 19.0285C100.231 19.8827 102.309 27.0312 107.542 23.2594C107.272 22.7157 107 22.1603 106.849 21.4874C105.981 17.5677 107.685 13.1404 112.316 12.4249C114.969 12.0149 117.469 13.1598 117.864 15.741C118.514 19.9645 114.211 23.0233 112.575 23.6868C111.842 23.3178 119.218 27.5107 123.596 19.108C123.85 18.6282 124.156 18.6689 124.552 18.9162C124.832 19.0908 126.427 20.4299 125.686 21.5633ZM10.5971 19.2517C10.3743 18.6615 9.91722 17.361 9.75558 16.7976C8.86534 16.1114 8.22992 16 7.08722 16C4.54779 16 3.05312 18.0809 3.05312 20.3247C3.05312 22.5684 4.68145 24.6496 7.2209 24.6496C9.42162 24.6496 11.0966 23.3235 11.6076 21.4462C11.2499 20.7143 10.8951 20.0417 10.5971 19.2517ZM14.0131 3.20145C12.2288 3.20145 11.6235 6.97401 11.7409 10.1924C11.8448 13.0378 12.742 15.5428 13.2073 16.6653C13.3255 16.8059 13.3035 16.7144 13.409 16.8636C16.5072 10.8472 15.2222 3.20145 14.0131 3.20145ZM51.1697 3.31996C48.8635 3.08554 48.8784 11.6001 49.1647 13.51C50.3625 11.8118 52.4431 3.77721 51.1697 3.31996ZM68.0103 3.31996C65.7041 3.08554 65.719 11.6001 66.0055 13.51C67.2031 11.8118 69.2839 3.77721 68.0103 3.31996ZM84.7176 3.43842C82.4112 3.204 82.4261 11.7186 82.7126 13.6287C83.9102 11.9303 85.991 3.89564 84.7176 3.43842ZM101.157 2.82153C97.5641 3.46102 98.4008 14.0789 98.9465 15.9412C103.179 10.789 103.266 2.628 101.157 2.82153ZM114.623 16.0903C114.441 15.4133 113.527 15.0515 112.897 15.1407C111.093 15.359 109.343 17.3505 110.02 20.3824C110.171 21.0576 110.548 21.6792 110.542 21.6585C114.58 19.2577 114.923 17.3659 114.623 16.0903ZM38.539 11.0218C38.0233 11.0219 37.5193 10.8864 37.0905 10.6326C36.6617 10.3787 36.3275 10.0179 36.13 9.59571C35.9326 9.17351 35.881 8.7089 35.9816 8.26067C36.0821 7.81243 36.3304 7.40069 36.695 7.07751C37.0596 6.75433 37.5241 6.53425 38.0298 6.44507C38.5355 6.3559 39.0598 6.40164 39.5362 6.57654C40.0126 6.75143 40.4197 7.04761 40.7062 7.42761C40.9926 7.80761 41.1455 8.25437 41.1455 8.71137C41.1455 9.01476 41.0782 9.31519 40.9471 9.59549C40.8162 9.8758 40.6242 10.1305 40.3821 10.345C40.14 10.5596 39.8528 10.7298 39.5365 10.8459C39.2203 10.962 38.8814 11.0218 38.539 11.0218Z" fill="#0D0C22"/>
</svg>
