<svg width="130" height="48" viewBox="0 0 130 48" fill="none" xmlns="http://www.w3.org/2000/svg">
<g id="Company logo" style="mix-blend-mode:luminosity" clip-path="url(#clip0_2145_208)">
<g id="Vector">
<path d="M14.3699 13.1062V22.1939H4.95303V13.1062H0.482239V34.7995H4.95303V26.0069H14.3699V34.7995H18.8407V13.1062H14.3699Z" fill="#33475B"/>
<path d="M33.149 27.7867C33.149 28.6561 32.7593 29.4899 32.0657 30.1046C31.372 30.7194 30.4313 31.0647 29.4503 31.0647C28.4694 31.0647 27.5286 30.7194 26.835 30.1046C26.1414 29.4899 25.7517 28.6561 25.7517 27.7867V18.4951H21.5109V27.7867C21.5109 29.6511 22.3466 31.4392 23.8341 32.7575C25.3216 34.0759 27.339 34.8165 29.4427 34.8165C31.5463 34.8165 33.5638 34.0759 35.0513 32.7575C36.5388 31.4392 37.3744 29.6511 37.3744 27.7867V18.4951H33.149V27.7867Z" fill="#33475B"/>
<path d="M64.5704 19.4527C64.5704 17.5482 65.992 16.9444 67.5494 16.9444C68.8046 16.9444 70.4628 17.7908 71.5471 18.8178L74.3246 15.9174C72.938 14.2555 70.1254 13.1062 67.8232 13.1062C63.2232 13.1062 59.8958 15.4942 59.8958 19.4527C59.8958 26.797 70.0247 24.4673 70.0247 28.5773C70.0247 29.845 68.6359 30.9652 67.0456 30.9652C64.5375 30.9652 63.7248 29.878 62.5726 28.7287L59.4906 31.569C61.462 33.7143 63.8935 34.8034 66.8068 34.8034C71.1769 34.8034 74.6926 32.3863 74.6926 28.6084C74.6926 20.4545 64.5638 22.988 64.5638 19.4527" fill="#33475B"/>
<path d="M127.232 31.3339C124.726 31.3339 124.014 30.3729 124.014 28.9013V22.3878H127.908V19.0874H124.014V14.7329L119.714 16.4432V29.7108C119.714 33.1044 122.356 34.8148 125.979 34.8148C126.547 34.824 127.115 34.7837 127.674 34.6944L128.723 31.2717C128.25 31.3008 127.707 31.33 127.232 31.33" fill="#33475B"/>
<path d="M49.2917 18.6046C47.1911 18.6046 45.7256 19.1443 44.3084 20.3771V13.2366H40.061V26.4712C40.061 31.4257 44.1025 34.8193 48.6433 34.8193C53.6815 34.8193 58.1128 31.3655 58.1128 26.7139C58.1128 22.1205 54.0341 18.6066 49.2917 18.6066V18.6046ZM49.2654 31.0316C48.3123 31.0316 47.3806 30.7811 46.5881 30.3118C45.7956 29.8425 45.1779 29.1754 44.8132 28.395C44.4485 27.6145 44.353 26.7558 44.539 25.9272C44.7249 25.0987 45.1839 24.3377 45.8578 23.7404C46.5318 23.143 47.3905 22.7363 48.3253 22.5715C49.2601 22.4067 50.2291 22.4912 51.1096 22.8145C51.9902 23.1378 52.7428 23.6852 53.2724 24.3876C53.8019 25.09 54.0845 25.9158 54.0845 26.7605C54.0845 27.8933 53.5768 28.9796 52.673 29.7806C51.7693 30.5816 50.5435 31.0316 49.2654 31.0316Z" fill="#33475B"/>
<path d="M95.4101 26.515C95.4101 21.8557 90.9875 18.4096 85.9406 18.4096C81.3997 18.4096 77.3583 21.8032 77.3583 26.7577V40.0001H81.6056V32.8499C83.0207 34.0807 84.4883 34.6224 86.5868 34.6224C91.3292 34.6224 95.4079 31.1103 95.4079 26.515H95.4101ZM91.3883 26.4684C91.3883 27.3132 91.1057 28.139 90.5762 28.8413C90.0466 29.5437 89.294 30.0912 88.4134 30.4144C87.5329 30.7377 86.5639 30.8223 85.6291 30.6575C84.6943 30.4927 83.8356 30.0859 83.1617 29.4886C82.4877 28.8912 82.0287 28.1302 81.8428 27.3017C81.6568 26.4732 81.7523 25.6144 82.117 24.834C82.4818 24.0535 83.0994 23.3865 83.8919 22.9171C84.6844 22.4478 85.6161 22.1973 86.5693 22.1973C87.8474 22.1973 89.0731 22.6473 89.9769 23.4483C90.8806 24.2493 91.3883 25.3357 91.3883 26.4684Z" fill="#33475B"/>
</g>
<path id="Vector_2" d="M109.089 18.3496V14.6066C109.647 14.3756 110.119 14.0088 110.451 13.5489C110.783 13.089 110.961 12.555 110.964 12.009V11.9216C110.961 11.1587 110.618 10.4276 110.01 9.88807C109.401 9.34858 108.576 9.04458 107.715 9.04254H107.617C106.756 9.04458 105.931 9.34858 105.322 9.88807C104.713 10.4276 104.37 11.1587 104.368 11.9216V12.009C104.371 12.555 104.549 13.089 104.881 13.5489C105.212 14.0088 105.685 14.3756 106.243 14.6066V18.3496C104.639 18.5671 103.127 19.1565 101.862 20.0581L90.2658 12.0614C90.3483 11.7976 90.3925 11.5256 90.3972 11.2519C90.3981 10.6095 90.184 9.98128 89.782 9.44673C89.3801 8.91217 88.8083 8.49527 88.139 8.24873C87.4697 8.00219 86.7329 7.93708 86.0219 8.06166C85.3108 8.18623 84.6574 8.49487 84.1443 8.94857C83.6312 9.40226 83.2814 9.98063 83.1391 10.6105C82.9968 11.2404 83.0685 11.8936 83.3451 12.4873C83.6217 13.0811 84.0907 13.5889 84.6929 13.9464C85.2951 14.3039 86.0033 14.4952 86.7281 14.496C87.3648 14.4939 87.9896 14.3432 88.5397 14.0591L99.9411 21.9257C98.9142 23.2989 98.3784 24.9146 98.4038 26.5619C98.4292 28.2091 99.0146 29.8113 100.084 31.1591L96.6138 34.2343C96.3353 34.1557 96.0452 34.1138 95.7529 34.11C95.1572 34.11 94.5749 34.2666 94.0796 34.5599C93.5843 34.8532 93.1982 35.2701 92.9703 35.7579C92.7423 36.2457 92.6827 36.7824 92.7989 37.3002C92.9151 37.818 93.202 38.2937 93.6232 38.667C94.0444 39.0403 94.5811 39.2946 95.1653 39.3976C95.7496 39.5006 96.3552 39.4477 96.9055 39.2457C97.4559 39.0436 97.9263 38.7015 98.2573 38.2625C98.5882 37.8235 98.7649 37.3074 98.7649 36.7794C98.7608 36.5204 98.7136 36.2633 98.6247 36.0165L102.057 32.9743C103.178 33.7328 104.479 34.2544 105.861 34.4993C107.244 34.7441 108.671 34.7058 110.035 34.3871C111.398 34.0685 112.661 33.478 113.728 32.6607C114.794 31.8434 115.636 30.8209 116.189 29.6713C116.742 28.5217 116.991 27.2754 116.917 26.0275C116.843 24.7796 116.449 23.5631 115.764 22.4709C115.079 21.3786 114.122 20.4395 112.965 19.7253C111.808 19.0111 110.482 18.5405 109.089 18.3496ZM107.667 30.6621C106.728 30.6621 105.81 30.4152 105.029 29.9527C104.248 29.4902 103.639 28.8329 103.28 28.0638C102.92 27.2947 102.826 26.4484 103.009 25.632C103.193 24.8155 103.645 24.0655 104.309 23.4769C104.973 22.8883 105.819 22.4874 106.741 22.325C107.662 22.1626 108.617 22.2459 109.484 22.5645C110.352 22.8831 111.094 23.4225 111.616 24.1147C112.137 24.8069 112.416 25.6206 112.416 26.4531C112.416 27.5694 111.916 28.6399 111.025 29.4293C110.134 30.2186 108.927 30.6621 107.667 30.6621Z" fill="#FF7A59"/>
</g>
<defs>
<clipPath id="clip0_2145_208">
<rect width="128.626" height="48" fill="white" transform="translate(0.482239)"/>
</clipPath>
</defs>
</svg>
