<svg width="126" height="30" viewBox="0 0 126 30" fill="none" xmlns="http://www.w3.org/2000/svg">
<path d="M17.8808 28.0663C15.9967 28.3595 14.0794 28.4474 12.0961 28.6816L6.04679 12.9786V29.3555C4.16269 29.5313 2.44384 29.7656 0.658813 30V0H5.6834L12.5588 17.0217V0H17.8808V28.0663ZM28.2933 10.9863C30.3429 10.9863 33.4832 10.8984 35.3673 10.8984V15.5858C33.0202 15.5858 30.2767 15.5858 28.2933 15.6737V22.6465C31.4007 22.4708 34.5079 22.2362 37.648 22.1483V26.6597L23.0043 27.6854V0H37.648V4.68751H28.2933V10.9863ZM57.3161 4.68762H51.8289V26.2501C50.0439 26.2501 48.2589 26.2501 46.5402 26.3085V4.68762H41.0531V0H57.3163L57.3161 4.68762ZM65.9105 10.6642H73.1498V15.3516H65.9105V25.9864H60.7204V0H75.4967V4.68751H65.9105V10.6642ZM84.0911 21.8848C87.0993 21.9432 90.1402 22.1486 93.0823 22.2948V26.9238C88.3554 26.66 83.6284 26.3966 78.8023 26.3085V0H84.0911V21.8848ZM97.5447 27.2461C99.2306 27.3341 101.016 27.422 102.734 27.5975V0H97.5447V27.2461ZM125.907 0L119.196 14.2676L125.907 30C123.923 29.7656 121.94 29.4433 119.956 29.1503L116.155 20.4786L112.288 28.4474C110.37 28.1542 108.519 28.0663 106.602 27.8319L113.412 14.0917L107.263 0H112.949L116.419 7.88088L120.122 0H125.907V0Z" fill="#D81F26"/>
</svg>
