<svg width="146" height="35" viewBox="0 0 146 35" fill="none" xmlns="http://www.w3.org/2000/svg">
<path d="M50.8091 28.7749V14.2199H51.1017L63.0556 28.7749H66.8173V7.40064H62.6376V21.919H62.345L50.3911 7.40064H46.6294V28.7749H50.8091ZM78.6459 29.1049C84.1631 29.1049 87.5487 25.9519 87.5487 20.6725C87.5487 15.4297 84.1631 12.2401 78.6459 12.2401C73.1705 12.2401 69.7431 15.4297 69.7431 20.6725C69.7849 25.9519 73.1287 29.1049 78.6459 29.1049ZM78.6459 26.0252C75.7201 26.0252 74.0482 24.0821 74.0482 20.6725C74.0482 17.2995 75.7201 15.3198 78.6459 15.3198C81.5717 15.3198 83.2436 17.2995 83.2436 20.6725C83.2436 24.0821 81.5717 26.0252 78.6459 26.0252ZM91.3522 8.6105V12.68H88.4264V15.6131H91.3522V24.4487C91.3522 27.6017 93.0241 28.8483 97.2873 28.8483C98.0815 28.8483 98.8756 28.7749 99.5026 28.6649V25.8053C99.001 25.8419 98.6666 25.8786 98.0815 25.8786C96.326 25.8786 95.5319 25.182 95.5319 23.5688V15.6131H99.5026V12.68H95.5319V8.6105H91.3522ZM102.01 28.7749H106.19V12.5701H102.01V28.7749ZM104.1 9.89369C105.48 9.89369 106.608 8.9038 106.608 7.69393C106.608 6.44741 105.48 5.45752 104.1 5.45752C102.721 5.45752 101.592 6.44741 101.592 7.69393C101.592 8.9038 102.721 9.89369 104.1 9.89369ZM117.643 29.1049C123.16 29.1049 126.545 25.9519 126.545 20.6725C126.545 15.4297 123.16 12.2401 117.643 12.2401C112.167 12.2401 108.74 15.4297 108.74 20.6725C108.74 25.9519 112.083 29.1049 117.643 29.1049ZM117.643 26.0252C114.717 26.0252 113.045 24.0821 113.045 20.6725C113.045 17.2995 114.717 15.3198 117.643 15.3198C120.526 15.3198 122.24 17.2995 122.24 20.6725C122.198 24.0821 120.526 26.0252 117.643 26.0252ZM129.011 28.7749H133.191V19.3526C133.191 16.9696 134.779 15.4664 137.245 15.4664C139.795 15.4664 140.965 16.7129 140.965 19.1693V28.7749H145.145V18.2894C145.145 14.4032 142.888 12.2401 138.792 12.2401C136.033 12.2401 134.194 13.34 133.316 15.1731H133.024V12.5701H128.969C129.011 12.5701 129.011 28.7749 129.011 28.7749Z" fill="black"/>
<path fill-rule="evenodd" clip-rule="evenodd" d="M6.55318 6.03259C7.76969 6.90239 8.2097 6.83372 10.4874 6.69638L31.9445 5.55191C32.4104 5.55191 32.0222 5.1399 31.8669 5.09412L28.295 2.82806C27.6221 2.37028 26.6903 1.82093 24.9561 1.95826L4.19781 3.30874C3.4472 3.37741 3.2919 3.72075 3.6025 3.97254L6.55318 6.03259ZM7.84734 10.4502V30.4098C7.84734 31.4857 8.44265 31.8748 9.81446 31.8061L33.394 30.593C34.7658 30.5243 34.9211 29.7918 34.9211 28.922V9.09977C34.9211 8.22997 34.5329 7.74929 33.7046 7.81796L9.06384 9.09977C8.15793 9.16844 7.84734 9.58045 7.84734 10.4502ZM31.1163 11.5261C31.2716 12.1212 31.1163 12.7392 30.4433 12.8079L29.3045 13.0139V27.7547C28.3209 28.2125 27.415 28.4871 26.6385 28.4871C25.422 28.4871 25.1114 28.1438 24.2055 27.1367L16.777 16.8135V26.7933L19.1324 27.2511C19.1324 27.2511 19.1324 28.4642 17.2429 28.4642L12.0145 28.7389C11.8592 28.4642 12.0145 27.8005 12.5322 27.6631L13.904 27.3198V14.1355L12.0145 13.9981C11.8592 13.403 12.2475 12.5332 13.3087 12.4645L18.9253 12.1212L26.6644 22.5588V13.3343L24.6973 13.1283C24.542 12.3959 25.1632 11.8465 25.9138 11.7778L31.1163 11.5261ZM2.46364 1.47759L24.0761 0.0813291C26.7161 -0.124676 27.415 0.0126612 29.0715 1.08847L35.9564 5.36879C37.0953 6.10125 37.4835 6.30726 37.4835 7.10839V30.6159C37.4835 32.0808 36.8882 32.9506 34.7658 33.0879L9.68504 34.4384C8.08029 34.5071 7.32967 34.3011 6.50141 33.3626L1.40243 27.5258C0.496524 26.45 0.108276 25.6488 0.108276 24.7104V3.81231C0.108276 2.59917 0.729472 1.61492 2.46364 1.47759Z" fill="black"/>
</svg>
