<svg width="112" height="22" viewBox="0 0 112 22" fill="none" xmlns="http://www.w3.org/2000/svg">
<path fill-rule="evenodd" clip-rule="evenodd" d="M90.8335 6.59723C91.2557 7.24286 91.3938 7.97743 91.4395 8.80324L91.4994 9.90393V17.6007L91.5606 18.7025C91.6831 20.502 93.1805 21.8325 95.2264 21.9457L96.4631 22V9.90393L96.5244 8.80324C96.5752 7.98667 96.712 7.23824 97.1408 6.58799C97.5777 5.92103 98.2048 5.36767 98.9593 4.98348C99.7138 4.59928 100.569 4.39777 101.439 4.39918C102.309 4.40058 103.164 4.60485 103.917 4.99148C104.67 5.37811 105.294 5.93348 105.729 6.60185C106.151 7.24748 106.282 7.99591 106.333 8.80324L106.395 9.90046V17.6007L106.456 18.7025C106.583 20.5112 108.069 21.8418 110.122 21.9457L111.358 22V8.80324C111.358 6.46969 110.313 4.23166 108.451 2.58127C106.59 0.930875 104.065 0.00323181 101.432 0.00231305C100.023 0.000995875 98.6295 0.266231 97.3452 0.780298C96.0609 1.29437 94.9152 2.04543 93.9845 2.98331C93.0535 2.0458 91.9077 1.29492 90.6235 0.780697C89.3393 0.266477 87.9462 0.000728203 86.537 0.00115785C84.4754 0.00115785 82.5623 0.555547 80.9777 1.51302C80.0107 0.556701 77.8475 0.00115785 76.6056 0.00115785V22L77.8475 21.9457C79.9247 21.8244 81.426 20.5297 81.5068 18.7025L81.5732 17.6007V9.90393L81.6345 8.80324C81.6866 7.97281 81.8169 7.24286 82.2405 6.59261C82.6777 5.92606 83.3046 5.37284 84.0585 4.98817C84.8124 4.60351 85.667 4.40086 86.537 4.40046C87.4076 4.40063 88.2628 4.60368 89.0169 4.98925C89.771 5.37482 90.3975 5.92935 90.8335 6.59723ZM5.86363 21.9469L7.10554 22H25.7212L25.6599 20.9028C25.4918 19.0941 24.0466 17.7728 21.9993 17.655L20.7574 17.6007H9.58936L24.4793 4.39931L24.418 3.30324C24.3216 1.47606 22.8151 0.155925 20.7574 0.0554414L19.5155 0.00577766L0.899902 0.00115785L0.961151 1.10185C1.12405 2.89322 2.5901 4.24223 4.62042 4.34618L5.86363 4.40046H17.0317L2.14181 17.6018L2.20306 18.7025C2.32556 20.5159 3.80204 21.8291 5.86363 21.9457V21.9469ZM71.7331 3.22123C72.8857 4.2426 73.8001 5.45521 74.4239 6.7898C75.0477 8.1244 75.3688 9.55484 75.3688 10.9994C75.3688 12.444 75.0477 13.8744 74.4239 15.209C73.8001 16.5436 72.8857 17.7562 71.7331 18.7776C69.4043 20.8399 66.247 21.9983 62.955 21.9983C59.663 21.9983 56.5057 20.8399 54.1769 18.7776C49.3305 14.4823 49.3305 7.51659 54.1769 3.22123C55.3285 2.20021 56.6958 1.39022 58.2006 0.837517C59.7054 0.284816 61.3183 0.000228005 62.9472 2.65159e-06C64.5787 -0.00100129 66.1945 0.283085 67.7021 0.836013C69.2097 1.38894 70.5794 2.19986 71.7331 3.22239V3.22123ZM68.2211 6.33621C69.617 7.57436 70.4012 9.25311 70.4012 11.0035C70.4012 12.7538 69.617 14.4326 68.2211 15.6707C66.8241 16.908 64.9299 17.6029 62.955 17.6029C60.9801 17.6029 59.086 16.908 57.6889 15.6707C56.293 14.4326 55.5088 12.7538 55.5088 11.0035C55.5088 9.25311 56.293 7.57436 57.6889 6.33621C59.086 5.09898 60.9801 4.404 62.955 4.404C64.9299 4.404 66.8241 5.09898 68.2211 6.33621ZM36.8997 2.65159e-06C38.5287 0.000379687 40.1416 0.28515 41.6464 0.83805C43.1512 1.39095 44.5184 2.20115 45.6699 3.22239C50.5177 7.51659 50.5177 14.4834 45.6699 18.7776C43.3412 20.8399 40.1838 21.9983 36.8918 21.9983C33.5998 21.9983 30.4425 20.8399 28.1138 18.7776C23.2673 14.4823 23.2673 7.51659 28.1138 3.22123C29.2654 2.20021 30.6326 1.39022 32.1374 0.837517C33.6422 0.284816 35.2551 0.000228005 36.884 2.65159e-06H36.8997ZM42.1579 6.3339C43.5543 7.5721 44.3387 9.25109 44.3387 11.0017C44.3387 12.7524 43.5543 14.4314 42.1579 15.6696C40.7609 16.9068 38.8668 17.6018 36.8918 17.6018C34.9169 17.6018 33.0228 16.9068 31.6258 15.6696C30.2298 14.4314 29.4457 12.7527 29.4457 11.0023C29.4457 9.25195 30.2298 7.57321 31.6258 6.33505C33.0228 5.09783 34.9169 4.40284 36.8918 4.40284C38.8668 4.40284 40.7609 5.09783 42.1579 6.33505V6.3339Z" fill="#2D8CFF"/>
</svg>
